<svg width="28" height="28" viewBox="0 0 28 28" fill="none" xmlns="http://www.w3.org/2000/svg">
<path d="M27.5897 25.6089C27.7198 25.7389 27.823 25.8933 27.8934 26.0633C27.9638 26.2332 28 26.4154 28 26.5993C28 26.7832 27.9638 26.9654 27.8934 27.1353C27.823 27.3053 27.7198 27.4597 27.5897 27.5897C27.4597 27.7198 27.3053 27.823 27.1353 27.8934C26.9654 27.9638 26.7832 28 26.5993 28C26.4154 28 26.2332 27.9638 26.0633 27.8934C25.8933 27.823 25.7389 27.7198 25.6089 27.5897L14 15.9791L2.39115 27.5897C2.12846 27.8524 1.77219 28 1.4007 28C1.02921 28 0.672938 27.8524 0.410256 27.5897C0.147573 27.3271 7.32293e-09 26.9708 0 26.5993C-7.32293e-09 26.2278 0.147573 25.8715 0.410256 25.6089L12.0209 14L0.410256 2.39115C0.147573 2.12846 -2.76781e-09 1.77219 0 1.4007C2.76781e-09 1.02921 0.147573 0.672938 0.410256 0.410256C0.672938 0.147573 1.02921 2.76781e-09 1.4007 0C1.77219 -2.76781e-09 2.12846 0.147573 2.39115 0.410256L14 12.0209L25.6089 0.410256C25.8715 0.147573 26.2278 -7.32293e-09 26.5993 0C26.9708 7.32293e-09 27.3271 0.147573 27.5897 0.410256C27.8524 0.672938 28 1.02921 28 1.4007C28 1.77219 27.8524 2.12846 27.5897 2.39115L15.9791 14L27.5897 25.6089Z" fill="white"/>
</svg>
