<svg width="1005" height="83" viewBox="0 0 1005 83" fill="none" xmlns="http://www.w3.org/2000/svg">
<path d="M916.778 20.3557L917.773 20.4487L917.959 18.4574L916.964 18.3643L916.778 20.3557ZM547.341 1.39847L547.342 0.398467L547.341 1.39847ZM75.7985 15.4374L75.6765 14.4448L75.7985 15.4374ZM12.8004 42.6127L13.1043 41.66L12.8004 42.6127ZM141.06 64.1724L140.957 65.1671L141.06 64.1724ZM526.405 81.1695L526.396 82.1695L526.405 81.1695ZM847.809 75.3534L847.728 74.3567L847.809 75.3534ZM953.246 64.5234L953.128 63.5303L953.246 64.5234ZM983.802 46.5235L983.974 45.5386L983.802 46.5235ZM691.539 15.4374L691.519 16.4372L691.539 15.4374ZM390.014 10.3462L390.041 11.3458L390.014 10.3462ZM277.453 14.4402C276.902 14.4816 276.489 14.9617 276.531 15.5124C276.572 16.0631 277.052 16.476 277.603 16.4346L277.453 14.4402ZM916.964 18.3643C797.387 7.1879 666.847 0.515905 547.342 0.398467L547.34 2.39847C666.778 2.51584 797.256 9.1844 916.778 20.3557L916.964 18.3643ZM547.342 0.398467C392.49 0.246291 220.558 -3.36224 75.6765 14.4448L75.9205 16.4299C220.645 -1.35788 392.408 2.24621 547.34 2.39847L547.342 0.398467ZM75.6765 14.4448C58.3975 16.5686 32.8118 20.2558 16.416 24.9865C12.3141 26.17 8.74936 27.4292 6.01997 28.7621C4.65486 29.4287 3.47455 30.1253 2.533 30.8562C1.59816 31.5819 0.847379 32.3809 0.411537 33.2683C-0.0394834 34.1866 -0.138079 35.1746 0.206758 36.1706C0.539462 37.1316 1.25247 38.0081 2.24661 38.8182C4.22266 40.4284 7.58898 41.9999 12.4965 43.5654L13.1043 41.66C8.24966 40.1114 5.18283 38.6309 3.51001 37.2678C2.67972 36.5912 2.26437 36.0006 2.0967 35.5163C1.94117 35.0671 1.9702 34.6315 2.2067 34.15C2.45838 33.6375 2.95503 33.0605 3.75943 32.436C4.55713 31.8168 5.60788 31.189 6.89757 30.5592C9.47779 29.2993 12.9176 28.0774 16.9705 26.9081C33.1938 22.2272 58.6314 18.5549 75.9205 16.4299L75.6765 14.4448ZM12.4965 43.5654C44.1731 53.6699 96.1165 60.5264 140.957 65.1671L141.163 63.1777C96.2953 58.5342 44.5541 51.6921 13.1043 41.66L12.4965 43.5654ZM140.957 65.1671C263.917 77.8927 395.926 80.9624 526.396 82.1695L526.414 80.1696C395.952 78.9626 264.023 75.893 141.163 63.1777L140.957 65.1671ZM526.396 82.1695C633.976 83.1647 743.622 84.8241 847.89 76.3501L847.728 74.3567C743.569 82.8217 634.024 81.1651 526.414 80.1696L526.396 82.1695ZM847.89 76.3501C884.149 73.4033 918.805 69.5993 953.363 65.5165L953.128 63.5303C918.58 67.612 883.951 71.4127 847.728 74.3567L847.89 76.3501ZM953.363 65.5165C969.972 63.5542 989.339 61.0833 998.735 58.0572C1001.06 57.3089 1002.95 56.4755 1004 55.4976C1004.54 54.996 1004.99 54.3386 1005 53.5296C1005.01 52.7132 1004.57 52.0298 1003.98 51.4867C1002.84 50.4345 1000.66 49.4683 997.473 48.5182C994.235 47.5529 989.797 46.5609 983.974 45.5386L983.629 47.5084C989.415 48.5246 993.769 49.5009 996.901 50.4348C1000.08 51.384 1001.85 52.2481 1002.62 52.9581C1002.99 53.2961 1003 53.4769 1003 53.5077C1003 53.546 1002.98 53.7189 1002.64 54.031C1001.94 54.6804 1000.44 55.4073 998.121 56.1535C988.957 59.1051 969.828 61.5573 953.128 63.5303L953.363 65.5165ZM983.974 45.5386C897.24 30.309 793.076 16.4891 691.559 14.4376L691.519 16.4372C792.895 18.4859 896.95 32.2885 983.629 47.5084L983.974 45.5386ZM691.559 14.4376C626.868 13.1302 575.227 9.34615 510.312 9.34615V11.3462C575.242 11.3462 626.663 15.1265 691.519 16.4372L691.559 14.4376ZM510.312 9.34615C480.553 9.34615 419.698 8.55934 389.988 9.3465L390.041 11.3458C419.718 10.5595 480.493 11.3462 510.312 11.3462V9.34615ZM389.988 9.3465C349.262 10.4255 316.582 11.4964 277.453 14.4402L277.603 16.4346C316.681 13.4946 349.321 12.4246 390.041 11.3458L389.988 9.3465Z" fill="white"/>
</svg>
