<svg width="38" height="29" viewBox="0 0 29 38" fill="none" xmlns="http://www.w3.org/2000/svg">
    <g transform="rotate(90, 14.5, 19)">
        <path fill-rule="evenodd" clip-rule="evenodd" d="M15.6354 37.5237C15.3341 37.8287 14.9258 38 14.5 38C14.0742 38 13.6659 37.8287 13.3646 37.5237L0.511363 24.4946C0.353509 24.3455 0.226901 24.1657 0.139088 23.966C0.051274 23.7662 0.00405757 23.5505 0.000250488 23.3318C-0.00355469 23.1132 0.0361277 22.896 0.116934 22.6932C0.197739 22.4904 0.318015 22.3062 0.47058 22.1515C0.623145 21.9968 0.804879 21.8749 1.00493 21.793C1.20499 21.7111 1.41927 21.6709 1.635 21.6747C1.85073 21.6786 2.06348 21.7265 2.26056 21.8155C2.45764 21.9045 2.63502 22.0328 2.78211 22.1928L12.8933 32.4424L12.8933 1.62863C12.8933 1.19669 13.0626 0.782445 13.3639 0.477014C13.6652 0.171586 14.0739 1.30488e-06 14.5 1.26763e-06C14.9261 1.23038e-06 15.3348 0.171586 15.6361 0.477014C15.9374 0.782445 16.1067 1.19669 16.1067 1.62863L16.1067 32.4424L26.2179 22.1928C26.365 22.0328 26.5424 21.9045 26.7394 21.8155C26.9365 21.7265 27.1493 21.6786 27.365 21.6747C27.5807 21.6709 27.795 21.7111 27.9951 21.793C28.1951 21.8749 28.3769 21.9968 28.5294 22.1515C28.682 22.3061 28.8023 22.4904 28.8831 22.6932C28.9639 22.896 29.0036 23.1132 28.9997 23.3318C28.9959 23.5505 28.9487 23.7662 28.8609 23.966C28.7731 24.1657 28.6465 24.3455 28.4886 24.4946L15.6354 37.5237Z" fill="#3769E6"/>
    </g>
</svg>
